<mxfile host="app.diagrams.net" agent="Mozilla/5.0 (Windows NT 10.0; Win64; x64) AppleWebKit/537.36 (KHTML, like Gecko) Chrome/123.0.0.0 Safari/537.36 OPR/109.0.0.0" version="24.7.12">
  <diagram name="Página-1" id="O4-c2-5TvVN84nTGp4Hf">
    <mxGraphModel dx="796" dy="419" grid="1" gridSize="10" guides="1" tooltips="1" connect="1" arrows="1" fold="1" page="1" pageScale="1" pageWidth="1920" pageHeight="1200" math="0" shadow="0">
      <root>
        <mxCell id="0" />
        <mxCell id="1" parent="0" />
        <mxCell id="AR3jdv1JJKhVgjpmconb-1" value="Sistema Ventas Zapatería" style="ellipse;whiteSpace=wrap;html=1;aspect=fixed;fillColor=#e1d5e7;strokeColor=#9673a6;" vertex="1" parent="1">
          <mxGeometry x="820" y="230" width="110" height="110" as="geometry" />
        </mxCell>
        <mxCell id="AR3jdv1JJKhVgjpmconb-2" value="Cliente" style="rounded=0;whiteSpace=wrap;html=1;fillColor=#dae8fc;strokeColor=#6c8ebf;" vertex="1" parent="1">
          <mxGeometry x="600" y="340" width="80" height="60" as="geometry" />
        </mxCell>
        <mxCell id="AR3jdv1JJKhVgjpmconb-5" value="Administración" style="rounded=0;whiteSpace=wrap;html=1;fillColor=#dae8fc;strokeColor=#6c8ebf;" vertex="1" parent="1">
          <mxGeometry x="1050" y="150" width="80" height="60" as="geometry" />
        </mxCell>
        <mxCell id="AR3jdv1JJKhVgjpmconb-6" value="Contabilidad" style="rounded=0;whiteSpace=wrap;html=1;fillColor=#dae8fc;strokeColor=#6c8ebf;" vertex="1" parent="1">
          <mxGeometry x="630" y="160" width="80" height="60" as="geometry" />
        </mxCell>
        <mxCell id="AR3jdv1JJKhVgjpmconb-7" value="Almacén de zapatos" style="rounded=0;whiteSpace=wrap;html=1;fillColor=#dae8fc;strokeColor=#6c8ebf;" vertex="1" parent="1">
          <mxGeometry x="1110" y="340" width="80" height="60" as="geometry" />
        </mxCell>
        <mxCell id="AR3jdv1JJKhVgjpmconb-11" value="DFD Nivel 0 Zapatería" style="text;html=1;align=center;verticalAlign=middle;whiteSpace=wrap;rounded=0;" vertex="1" parent="1">
          <mxGeometry x="835" y="70" width="80" height="30" as="geometry" />
        </mxCell>
        <mxCell id="AR3jdv1JJKhVgjpmconb-12" value="Pago" style="html=1;verticalAlign=bottom;endArrow=block;curved=0;rounded=0;exitX=1;exitY=0.5;exitDx=0;exitDy=0;entryX=0;entryY=1;entryDx=0;entryDy=0;" edge="1" parent="1" source="AR3jdv1JJKhVgjpmconb-2" target="AR3jdv1JJKhVgjpmconb-1">
          <mxGeometry x="0.0031" width="80" relative="1" as="geometry">
            <mxPoint x="670" y="280" as="sourcePoint" />
            <mxPoint x="750" y="280" as="targetPoint" />
            <Array as="points">
              <mxPoint x="836" y="360" />
            </Array>
            <mxPoint as="offset" />
          </mxGeometry>
        </mxCell>
        <mxCell id="AR3jdv1JJKhVgjpmconb-13" value="Informes para la administración" style="html=1;verticalAlign=bottom;endArrow=block;curved=0;rounded=0;exitX=1;exitY=0;exitDx=0;exitDy=0;entryX=0;entryY=0.5;entryDx=0;entryDy=0;" edge="1" parent="1" source="AR3jdv1JJKhVgjpmconb-1" target="AR3jdv1JJKhVgjpmconb-5">
          <mxGeometry x="0.0031" width="80" relative="1" as="geometry">
            <mxPoint x="700" y="380" as="sourcePoint" />
            <mxPoint x="950" y="320" as="targetPoint" />
            <Array as="points">
              <mxPoint x="914" y="180" />
            </Array>
            <mxPoint as="offset" />
          </mxGeometry>
        </mxCell>
        <mxCell id="AR3jdv1JJKhVgjpmconb-14" value="Efectivo total recibido" style="html=1;verticalAlign=bottom;endArrow=block;curved=0;rounded=0;exitX=0;exitY=0;exitDx=0;exitDy=0;entryX=1;entryY=0.5;entryDx=0;entryDy=0;" edge="1" parent="1" source="AR3jdv1JJKhVgjpmconb-1" target="AR3jdv1JJKhVgjpmconb-6">
          <mxGeometry x="0.0031" width="80" relative="1" as="geometry">
            <mxPoint x="924" y="256" as="sourcePoint" />
            <mxPoint x="1060" y="190" as="targetPoint" />
            <Array as="points">
              <mxPoint x="836" y="190" />
            </Array>
            <mxPoint as="offset" />
          </mxGeometry>
        </mxCell>
        <mxCell id="AR3jdv1JJKhVgjpmconb-15" value="Compras para almacén de zapatos" style="html=1;verticalAlign=bottom;endArrow=block;curved=0;rounded=0;exitX=0;exitY=0;exitDx=0;exitDy=0;entryX=0.5;entryY=1;entryDx=0;entryDy=0;" edge="1" parent="1" source="AR3jdv1JJKhVgjpmconb-1" target="AR3jdv1JJKhVgjpmconb-6">
          <mxGeometry x="0.0031" width="80" relative="1" as="geometry">
            <mxPoint x="846" y="256" as="sourcePoint" />
            <mxPoint x="720" y="200" as="targetPoint" />
            <Array as="points">
              <mxPoint x="670" y="246" />
            </Array>
            <mxPoint as="offset" />
          </mxGeometry>
        </mxCell>
        <mxCell id="AR3jdv1JJKhVgjpmconb-16" value="Zapatos a comprar" style="html=1;verticalAlign=bottom;endArrow=block;curved=0;rounded=0;exitX=1;exitY=0.5;exitDx=0;exitDy=0;entryX=0;entryY=1;entryDx=0;entryDy=0;" edge="1" parent="1" source="AR3jdv1JJKhVgjpmconb-2" target="AR3jdv1JJKhVgjpmconb-1">
          <mxGeometry x="0.0031" width="80" relative="1" as="geometry">
            <mxPoint x="720" y="370" as="sourcePoint" />
            <mxPoint x="885" y="350" as="targetPoint" />
            <Array as="points" />
            <mxPoint as="offset" />
          </mxGeometry>
        </mxCell>
        <mxCell id="AR3jdv1JJKhVgjpmconb-17" value="Información de zapatos disponibles en almacén" style="html=1;verticalAlign=bottom;endArrow=block;curved=0;rounded=0;exitX=0.5;exitY=0;exitDx=0;exitDy=0;entryX=1;entryY=0.5;entryDx=0;entryDy=0;" edge="1" parent="1" source="AR3jdv1JJKhVgjpmconb-7" target="AR3jdv1JJKhVgjpmconb-1">
          <mxGeometry x="0.0031" width="80" relative="1" as="geometry">
            <mxPoint x="924" y="256" as="sourcePoint" />
            <mxPoint x="1060" y="190" as="targetPoint" />
            <Array as="points">
              <mxPoint x="1150" y="285" />
            </Array>
            <mxPoint as="offset" />
          </mxGeometry>
        </mxCell>
        <mxCell id="AR3jdv1JJKhVgjpmconb-18" value="Zapatos faltantes en tienda" style="html=1;verticalAlign=bottom;endArrow=block;curved=0;rounded=0;exitX=1.013;exitY=0.552;exitDx=0;exitDy=0;exitPerimeter=0;entryX=0;entryY=0.5;entryDx=0;entryDy=0;" edge="1" parent="1" source="AR3jdv1JJKhVgjpmconb-1" target="AR3jdv1JJKhVgjpmconb-7">
          <mxGeometry x="0.0031" width="80" relative="1" as="geometry">
            <mxPoint x="1130" y="350" as="sourcePoint" />
            <mxPoint x="1050" y="350" as="targetPoint" />
            <Array as="points">
              <mxPoint x="930" y="370" />
            </Array>
            <mxPoint as="offset" />
          </mxGeometry>
        </mxCell>
        <mxCell id="AR3jdv1JJKhVgjpmconb-19" value="Recibo de venta" style="html=1;verticalAlign=bottom;endArrow=block;curved=0;rounded=0;exitX=0;exitY=0.5;exitDx=0;exitDy=0;entryX=0.5;entryY=0;entryDx=0;entryDy=0;" edge="1" parent="1" source="AR3jdv1JJKhVgjpmconb-1" target="AR3jdv1JJKhVgjpmconb-2">
          <mxGeometry x="0.0031" width="80" relative="1" as="geometry">
            <mxPoint x="846" y="256" as="sourcePoint" />
            <mxPoint x="680" y="230" as="targetPoint" />
            <Array as="points">
              <mxPoint x="670" y="285" />
            </Array>
            <mxPoint as="offset" />
          </mxGeometry>
        </mxCell>
        <mxCell id="AR3jdv1JJKhVgjpmconb-20" value="Zapatos devueltos por cliente" style="html=1;verticalAlign=bottom;endArrow=block;curved=0;rounded=0;exitX=1;exitY=0.5;exitDx=0;exitDy=0;entryX=0;entryY=0.5;entryDx=0;entryDy=0;" edge="1" parent="1" source="AR3jdv1JJKhVgjpmconb-1" target="AR3jdv1JJKhVgjpmconb-7">
          <mxGeometry x="0.0031" width="80" relative="1" as="geometry">
            <mxPoint x="941" y="301" as="sourcePoint" />
            <mxPoint x="1120" y="380" as="targetPoint" />
            <Array as="points" />
            <mxPoint as="offset" />
          </mxGeometry>
        </mxCell>
        <mxCell id="AR3jdv1JJKhVgjpmconb-21" value="Zapatos a devolver" style="html=1;verticalAlign=bottom;endArrow=block;curved=0;rounded=0;exitX=1;exitY=0.5;exitDx=0;exitDy=0;entryX=0.5;entryY=1;entryDx=0;entryDy=0;" edge="1" parent="1" source="AR3jdv1JJKhVgjpmconb-2" target="AR3jdv1JJKhVgjpmconb-1">
          <mxGeometry x="0.0031" width="80" relative="1" as="geometry">
            <mxPoint x="720" y="370" as="sourcePoint" />
            <mxPoint x="846" y="334" as="targetPoint" />
            <Array as="points">
              <mxPoint x="760" y="400" />
              <mxPoint x="850" y="400" />
              <mxPoint x="875" y="400" />
            </Array>
            <mxPoint as="offset" />
          </mxGeometry>
        </mxCell>
        <mxCell id="AR3jdv1JJKhVgjpmconb-22" value="Dinero devuelto por zapatos" style="html=1;verticalAlign=bottom;endArrow=block;curved=0;rounded=0;exitX=0;exitY=0.5;exitDx=0;exitDy=0;entryX=1;entryY=0;entryDx=0;entryDy=0;" edge="1" parent="1" source="AR3jdv1JJKhVgjpmconb-1" target="AR3jdv1JJKhVgjpmconb-2">
          <mxGeometry x="0.0031" width="80" relative="1" as="geometry">
            <mxPoint x="830" y="295" as="sourcePoint" />
            <mxPoint x="680" y="340" as="targetPoint" />
            <Array as="points" />
            <mxPoint as="offset" />
          </mxGeometry>
        </mxCell>
        <mxCell id="AR3jdv1JJKhVgjpmconb-23" value="Dinero por devoluciones" style="html=1;verticalAlign=bottom;endArrow=block;curved=0;rounded=0;entryX=1;entryY=0.5;entryDx=0;entryDy=0;exitX=0.5;exitY=0;exitDx=0;exitDy=0;" edge="1" parent="1" source="AR3jdv1JJKhVgjpmconb-1" target="AR3jdv1JJKhVgjpmconb-6">
          <mxGeometry x="0.0031" width="80" relative="1" as="geometry">
            <mxPoint x="840" y="230" as="sourcePoint" />
            <mxPoint x="720" y="200" as="targetPoint" />
            <Array as="points">
              <mxPoint x="850" y="160" />
              <mxPoint x="730" y="160" />
            </Array>
            <mxPoint as="offset" />
          </mxGeometry>
        </mxCell>
      </root>
    </mxGraphModel>
  </diagram>
</mxfile>
